<svg width="66" height="66" viewBox="0 0 66 66" fill="none" xmlns="http://www.w3.org/2000/svg">
<path d="M62.6736 61.1094L54.7536 22.8294C54.6282 22.2222 54.087 21.78 53.46 21.78H12.54C11.913 21.78 11.3718 22.2222 11.2464 22.8294L3.32638 61.1094C3.24718 61.4988 3.34618 61.9015 3.59698 62.2117C3.84778 62.5219 4.22398 62.7001 4.61998 62.7001H61.38C61.776 62.7001 62.1522 62.5219 62.403 62.2117C62.6538 61.9081 62.7528 61.4988 62.6736 61.1094ZM55.7964 40.9201C55.7832 40.9201 55.7766 40.9201 55.77 40.9201H34.32V24.42H52.3842L55.7964 40.9201ZM13.6158 24.42H31.68V40.9201H10.23C10.2168 40.9201 10.2102 40.9201 10.2036 40.9201L13.6158 24.42ZM9.68218 43.4346C9.84718 43.5138 10.032 43.5601 10.23 43.5601H31.68V60.0601H6.24358L9.68218 43.4346ZM34.32 60.0601V43.5601H55.77C55.968 43.5601 56.1528 43.5138 56.3178 43.4346L59.7564 60.0601H34.32ZM37.62 10.56C39.4416 10.56 40.92 12.0384 40.92 13.86C40.92 14.586 41.514 15.18 42.24 15.18C42.966 15.18 43.56 14.586 43.56 13.86C43.56 12.0384 45.0384 10.56 46.86 10.56C47.586 10.56 48.18 9.96605 48.18 9.24005C48.18 8.51405 47.586 7.92005 46.86 7.92005C45.0384 7.92005 43.56 6.44165 43.56 4.62005C43.56 3.89405 42.966 3.30005 42.24 3.30005C41.514 3.30005 40.92 3.89405 40.92 4.62005C40.92 6.44165 39.4416 7.92005 37.62 7.92005C36.894 7.92005 36.3 8.51405 36.3 9.24005C36.3 9.96605 36.894 10.56 37.62 10.56ZM42.24 8.34245C42.504 8.67245 42.8076 8.96945 43.1376 9.24005C42.8076 9.50405 42.5106 9.80765 42.24 10.1376C41.976 9.80765 41.6724 9.51065 41.3424 9.24005C41.6724 8.97605 41.976 8.67245 42.24 8.34245ZM19.14 13.2C20.9616 13.2 22.44 14.6784 22.44 16.5C22.44 17.226 23.034 17.82 23.76 17.82C24.486 17.82 25.08 17.226 25.08 16.5C25.08 14.6784 26.5584 13.2 28.38 13.2C29.106 13.2 29.7 12.606 29.7 11.88C29.7 11.154 29.106 10.56 28.38 10.56C26.5584 10.56 25.08 9.08165 25.08 7.26005C25.08 6.53405 24.486 5.94005 23.76 5.94005C23.034 5.94005 22.44 6.53405 22.44 7.26005C22.44 9.08165 20.9616 10.56 19.14 10.56C18.414 10.56 17.82 11.154 17.82 11.88C17.82 12.606 18.414 13.2 19.14 13.2ZM23.76 10.9824C24.024 11.3124 24.3276 11.6094 24.6576 11.88C24.3276 12.144 24.0306 12.4476 23.76 12.7776C23.496 12.4476 23.1924 12.1506 22.8624 11.88C23.1924 11.616 23.496 11.3124 23.76 10.9824Z" fill="white"/>
</svg>
