<svg width="63" height="63" viewBox="0 0 63 63" fill="none" xmlns="http://www.w3.org/2000/svg">
<path d="M57.6745 0H5.32639C3.38619 0 1.80725 1.57795 1.80725 3.51816V55.8672C1.80725 57.8074 3.38619 59.3834 5.32541 59.3834H7.02936V62.0461C7.02936 62.5728 7.45658 63 7.9842 63H16.2953C16.8229 63 17.2501 62.5728 17.2501 62.0461V59.3834H45.7478V62.0461C45.7478 62.5728 46.175 63 46.7026 63H55.0137C55.5403 63 55.9676 62.5728 55.9676 62.0461V59.3834H57.6725C59.6127 59.3834 61.1907 57.8064 61.1907 55.8672V3.51816C61.1926 1.57795 59.6147 0 57.6745 0ZM5.32639 1.90772H57.6745C58.5604 1.90772 59.2839 2.63025 59.2839 3.51816V13.0558H3.71694V3.51816C3.71694 2.63123 4.43848 1.90772 5.32639 1.90772ZM15.3414 61.0913H8.94003V59.3844H15.3424V61.0913H15.3414ZM54.0598 61.0913H47.6575V59.3844H54.0598V61.0913ZM57.6745 57.4747H5.32639C4.43947 57.4747 3.71694 56.7541 3.71694 55.8672V14.9655H59.2839V55.8672C59.2839 56.7532 58.5604 57.4747 57.6745 57.4747Z" fill="white"/>
<path d="M46.7036 11.3223C48.82 11.3223 50.5427 9.59963 50.5427 7.48323C50.5427 5.36682 48.82 3.64417 46.7036 3.64417C44.5862 3.64417 42.8636 5.36682 42.8636 7.48323C42.8636 9.59963 44.5862 11.3223 46.7036 11.3223ZM46.7036 5.55287C47.7668 5.55287 48.634 6.41912 48.634 7.48323C48.634 8.54734 47.7668 9.41359 46.7036 9.41359C45.6385 9.41359 44.7733 8.54734 44.7733 7.48323C44.7733 6.41912 45.6395 5.55287 46.7036 5.55287ZM31.5 11.3223C33.6164 11.3223 35.338 9.59963 35.338 7.48323C35.338 5.36682 33.6164 3.64417 31.5 3.64417C29.3836 3.64417 27.6609 5.36682 27.6609 7.48323C27.6609 9.59963 29.3836 11.3223 31.5 11.3223ZM31.5 5.55287C32.5631 5.55287 33.4293 6.41912 33.4293 7.48323C33.4293 8.54734 32.5641 9.41359 31.5 9.41359C30.4358 9.41359 29.5696 8.54734 29.5696 7.48323C29.5696 6.41912 30.4358 5.55287 31.5 5.55287ZM16.2963 11.3223C18.4137 11.3223 20.1344 9.59963 20.1344 7.48323C20.1344 5.36682 18.4137 3.64417 16.2963 3.64417C14.1799 3.64417 12.4572 5.36682 12.4572 7.48323C12.4572 9.59963 14.1799 11.3223 16.2963 11.3223ZM16.2963 5.55287C17.3604 5.55287 18.2266 6.41912 18.2266 7.48323C18.2266 8.54734 17.3604 9.41359 16.2963 9.41359C15.2322 9.41359 14.3659 8.54734 14.3659 7.48323C14.3659 6.41912 15.2322 5.55287 16.2963 5.55287ZM52.353 27.026H10.6499C10.1223 27.026 9.69507 27.4542 9.69507 27.9809V51.218C9.69507 51.7456 10.1223 52.1729 10.6499 52.1729H52.353C52.8816 52.1729 53.3088 51.7456 53.3088 51.218V27.9809C53.3078 27.4542 52.8816 27.026 52.353 27.026ZM51.3991 50.2642H11.6048V28.9357H51.3991V50.2642Z" fill="white"/>
</svg>
