<svg width="66" height="66" viewBox="0 0 66 66" fill="none" xmlns="http://www.w3.org/2000/svg">
<g clip-path="url(#clip0_221_68)">
<path d="M52.4491 11.6738C52.5074 8.70101 51.4086 5.82188 49.3845 3.64388C47.3604 1.46588 44.5694 0.159356 41.6004 2.99471e-06C39.6238 -0.00153244 37.6918 0.587393 36.0522 1.69125C33.976 0.585224 31.6604 0.00455801 29.3079 2.99471e-06C25.9739 0.108399 22.7584 1.26194 20.1158 3.29754C17.4732 5.33315 15.5372 8.14786 14.5816 11.3438C12.0865 12.0909 9.90936 13.6438 8.39056 15.7597C6.87175 17.8756 6.09693 20.4351 6.18724 23.0381C6.04493 26.0679 7.10503 29.0312 9.13682 31.2831C11.1686 33.5351 14.0076 34.8934 17.036 35.0625H23.2854L15.9429 48.4069C15.8777 48.5199 15.8422 48.6477 15.8397 48.7781C15.8228 48.8243 15.8158 48.8735 15.8191 48.9225L14.9735 57.3788V57.4613L14.2722 64.4531C14.2522 64.6529 14.2926 64.854 14.3882 65.0305C14.4838 65.207 14.6303 65.3508 14.8085 65.4431C14.9864 65.5366 15.187 65.5785 15.3875 65.5639C15.5879 65.5493 15.7803 65.4789 15.9429 65.3606L21.5116 61.0088L28.1941 55.77C28.367 55.6899 28.5059 55.5511 28.586 55.3781L39.7854 35.0625H48.9635C51.9918 34.8934 54.8309 33.5351 56.8627 31.2831C58.8944 29.0312 59.9545 26.0679 59.8122 23.0381C59.8748 20.6221 59.205 18.2438 57.8909 16.2155C56.5767 14.1872 54.6797 12.6039 52.4491 11.6738V11.6738ZM25.6572 35.0625H30.3597L21.8622 50.49L18.2529 48.51L25.6572 35.0625ZM16.5616 62.2463L16.9122 58.6493C17.8477 58.8816 18.7056 59.3561 19.3996 60.0249L16.5616 62.2463ZM21.0372 58.74L21.0166 58.7565C19.9642 57.662 18.6053 56.9113 17.1185 56.6033V56.5744L17.7166 50.5519L21.7179 52.7794C21.7385 52.7794 21.7385 52.8 21.7591 52.8C21.7797 52.8 21.7797 52.8206 21.8004 52.8206L25.8016 55.0275L21.0372 58.74ZM27.2866 53.4806H27.266L23.6772 51.48L32.711 35.0625H37.4135L27.2866 53.4806ZM48.9635 33H17.036C14.5549 32.8308 12.2406 31.6898 10.5956 29.8247C8.95061 27.9596 8.10766 25.521 8.24974 23.0381C8.15174 20.8343 8.8101 18.6633 10.1156 16.8851C11.4211 15.1069 13.2953 13.8285 15.4272 13.2619H15.4685C17.6 13.4232 19.5829 14.4148 20.9908 16.0232C22.3987 17.6316 23.1189 19.7284 22.9966 21.8625C22.9966 22.136 23.1053 22.3983 23.2987 22.5917C23.4921 22.7851 23.7544 22.8938 24.0279 22.8938C24.3014 22.8938 24.5637 22.7851 24.7571 22.5917C24.9505 22.3983 25.0591 22.136 25.0591 21.8625C25.1496 19.4114 24.3683 17.0076 22.8541 15.078C21.3399 13.1485 19.1908 11.8181 16.7885 11.3231C17.6933 8.69415 19.3744 6.40151 21.6097 4.74808C23.8449 3.09465 26.5292 2.15822 29.3079 2.0625C31.4754 2.06195 33.6039 2.63858 35.4747 3.73313C35.4954 3.75375 35.516 3.75375 35.5366 3.77438C36.5276 4.46662 37.3664 5.35441 38.0013 6.38306C38.6363 7.41172 39.0539 8.55947 39.2285 9.75563C39.2491 9.85875 39.2491 9.94125 39.2697 10.0444C39.2997 10.2924 39.4187 10.5211 39.6045 10.688C39.7904 10.8549 40.0306 10.9487 40.2804 10.9519H40.4041C40.6759 10.9153 40.9228 10.7742 41.0922 10.5585C41.2617 10.3429 41.3404 10.0696 41.3116 9.79688C41.3147 9.7678 41.3074 9.73858 41.291 9.71438C40.9932 7.1409 39.7777 4.76104 37.8672 3.01125C39.0143 2.39198 40.2968 2.06605 41.6004 2.0625C43.9836 2.21629 46.2175 3.27646 47.8438 5.0254C49.47 6.77435 50.3651 9.07941 50.3454 11.4675C49.1557 11.5973 48.0086 11.9844 46.9835 12.6019C46.3375 12.9548 45.741 13.3917 45.2097 13.9013C44.3399 14.7227 43.6147 15.685 43.0647 16.7475C43.0007 16.8674 42.9617 16.999 42.95 17.1344C42.9382 17.2699 42.954 17.4062 42.9964 17.5354C43.0388 17.6645 43.107 17.7837 43.1967 17.8858C43.2864 17.9879 43.3959 18.0707 43.5185 18.1294C43.6568 18.2084 43.8129 18.251 43.9722 18.2531C44.1634 18.2554 44.3513 18.2046 44.5152 18.1062C44.6791 18.0079 44.8125 17.866 44.9004 17.6963C45.3525 16.8056 45.9683 16.008 46.7154 15.345C47.2175 14.8617 47.7959 14.4645 48.4272 14.1694C49.292 13.7323 50.243 13.4928 51.2116 13.4681C51.2322 13.4475 51.2322 13.4475 51.2529 13.4681C53.214 14.1632 54.9019 15.4664 56.0705 17.1878C57.2392 18.9092 57.8275 20.9589 57.7497 23.0381C57.8918 25.521 57.0489 27.9596 55.4039 29.8247C53.7589 31.6898 51.4446 32.8308 48.9635 33V33ZM47.8291 21.78C47.8892 21.61 47.9037 21.4273 47.8711 21.2499C47.8386 21.0726 47.7601 20.9069 47.6435 20.7694C47.5283 20.6214 47.3696 20.5132 47.1897 20.46C46.9271 20.378 46.6429 20.401 46.3968 20.524C46.1506 20.6471 45.9618 20.8607 45.8697 21.12C45.4774 22.2946 45.3232 23.5357 45.416 24.7706C45.416 24.7761 45.4138 24.7813 45.4099 24.7852C45.4061 24.7891 45.4008 24.7913 45.3954 24.7913C45.3747 24.8325 45.3747 24.8531 45.3541 24.8738L45.416 24.8325C45.4773 26.0452 45.8084 27.229 46.3854 28.2975C46.4717 28.4641 46.6018 28.604 46.7617 28.7021C46.9216 28.8002 47.1053 28.8529 47.2929 28.8544C47.4591 28.855 47.6225 28.8124 47.7672 28.7306C47.8877 28.6697 47.9947 28.5853 48.082 28.4823C48.1693 28.3793 48.235 28.2599 48.2754 28.1311C48.3158 28.0023 48.3299 27.8667 48.317 27.7323C48.3042 27.598 48.2645 27.4675 48.2004 27.3488C47.7673 26.4932 47.5112 25.559 47.4474 24.6022C47.3836 23.6454 47.5134 22.6855 47.8291 21.78V21.78ZM21.0579 26.0288C20.1442 26.3203 19.1804 26.4213 18.2261 26.3255C17.2718 26.2297 16.3473 25.9392 15.5097 25.4719C15.3906 25.4065 15.2598 25.3654 15.1248 25.3508C14.9897 25.3361 14.8531 25.3483 14.7228 25.3867C14.5924 25.425 14.471 25.4887 14.3653 25.5741C14.2597 25.6595 14.172 25.765 14.1072 25.8844C14.0427 26.0047 14.0027 26.1367 13.9895 26.2726C13.9764 26.4085 13.9904 26.5457 14.0307 26.6762C14.071 26.8066 14.1368 26.9278 14.2243 27.0326C14.3118 27.1375 14.4192 27.2239 14.5404 27.2869C15.9006 28.0293 17.4251 28.4193 18.9747 28.4213C19.8994 28.4218 20.8184 28.2756 21.6972 27.9881C21.827 27.9477 21.9473 27.8818 22.051 27.7941C22.1548 27.7065 22.24 27.5989 22.3015 27.4778C22.3631 27.3566 22.3997 27.2244 22.4093 27.0889C22.4188 26.9534 22.4011 26.8173 22.3572 26.6888C22.2723 26.429 22.0877 26.2137 21.8441 26.0899C21.6005 25.9662 21.3177 25.9442 21.0579 26.0288V26.0288ZM38.7747 24.0488C38.2836 23.5541 37.7369 23.1181 37.1454 22.7494C36.5344 22.3545 35.8848 22.0228 35.2066 21.7594C34.5815 21.5114 33.9315 21.3316 33.2679 21.2231C32.9023 21.1413 32.5288 21.0998 32.1541 21.0994C32.0016 21.0164 31.83 20.9747 31.6564 20.9783C31.4828 20.9819 31.3131 21.0308 31.1641 21.12H31.1435C31.0904 21.0993 31.0315 21.0993 30.9785 21.12C29.8274 21.2052 28.7052 21.5208 27.6785 22.0481C27.4554 22.1824 27.2913 22.3961 27.2192 22.6463C27.1472 22.8965 27.1724 23.1647 27.2899 23.3971C27.4074 23.6294 27.6084 23.8088 27.8527 23.899C28.0969 23.9893 28.3662 23.9839 28.6066 23.8838C28.9473 23.7008 29.3069 23.5555 29.6791 23.4506H29.6997C30.5065 23.2004 31.3528 23.1024 32.1954 23.1619C32.9741 23.2128 33.7399 23.3868 34.4641 23.6775C35.0603 23.9067 35.6278 24.2043 36.1554 24.5644C36.7354 24.9555 37.2683 25.4123 37.7435 25.9256C38.3442 26.5735 38.851 27.3025 39.2491 28.0913C39.3342 28.2648 39.4663 28.411 39.6304 28.5131C39.7945 28.6152 39.984 28.6691 40.1772 28.6688C40.3427 28.6643 40.505 28.622 40.6516 28.545C40.7715 28.4834 40.8779 28.3987 40.9647 28.2956C41.0515 28.1925 41.1169 28.0732 41.1572 27.9447C41.1975 27.8161 41.2119 27.6808 41.1994 27.5466C41.187 27.4125 41.148 27.2821 41.0847 27.1631C40.5065 25.9956 39.7242 24.9409 38.7747 24.0488V24.0488ZM32.1747 8.8275C32.383 8.68495 32.5317 8.47097 32.5928 8.2261C32.6539 7.98123 32.6231 7.72246 32.5062 7.4988C32.3892 7.27514 32.1944 7.10211 31.9584 7.01249C31.7225 6.92287 31.4619 6.92287 31.226 7.0125C30.3704 7.44569 29.4363 7.70185 28.4795 7.76564C27.5226 7.82943 26.5627 7.69954 25.6572 7.38375C25.5286 7.33826 25.3923 7.31873 25.2561 7.3263C25.1199 7.33387 24.9865 7.36839 24.8638 7.42785C24.741 7.48732 24.6312 7.57055 24.5409 7.67274C24.4505 7.77492 24.3813 7.89401 24.3372 8.02313C24.2574 8.28582 24.2813 8.56913 24.4041 8.8147C24.5269 9.06027 24.7392 9.2494 24.9972 9.34313C25.9823 9.66794 27.0125 9.835 28.0497 9.83813C29.487 9.84652 30.9041 9.49934 32.1747 8.8275V8.8275Z" fill="white"/>
</g>
<defs>
<clipPath id="clip0_221_68">
<rect width="66" height="66" fill="white"/>
</clipPath>
</defs>
</svg>
