<svg width="66" height="66" viewBox="0 0 66 66" fill="none" xmlns="http://www.w3.org/2000/svg">
<path d="M54.4651 44.9921C54.7401 44.9921 55.0039 44.8864 55.1984 44.6983C55.3929 44.5101 55.5022 44.2549 55.5022 43.9889C55.5022 30.9601 47.0185 22.4258 33.7917 22.0045V1.00324C33.7917 0.737166 33.6824 0.481988 33.4879 0.293843C33.2934 0.105698 33.0296 0 32.7545 0C32.4795 0 32.2157 0.105698 32.0212 0.293843C31.8267 0.481988 31.7174 0.737166 31.7174 1.00324V22.0045C18.4837 22.4258 10 30.9601 10 43.9889C10 44.2549 10.1093 44.5101 10.3038 44.6983C10.4983 44.8864 10.7621 44.9921 11.0371 44.9921H24.5543C24.855 46.9031 25.8402 48.6513 27.3377 49.9312C28.8353 51.2111 30.75 51.9415 32.7476 51.9947C34.7464 51.943 36.6628 51.2134 38.1618 49.9333C39.6608 48.6532 40.6469 46.9042 40.9478 44.9921H54.4651ZM32.7476 23.9909C42.5104 23.9909 52.9301 29.0071 53.4072 42.9856H12.0743C12.5652 29.0071 22.9848 23.9909 32.7476 23.9909ZM32.7476 49.9882C31.3009 49.9346 29.9145 49.4132 28.8102 48.5075C27.706 47.6017 26.9475 46.364 26.6562 44.9921H38.8459C38.5544 46.365 37.7949 47.6036 36.6892 48.5095C35.5835 49.4153 34.1956 49.9361 32.7476 49.9882V49.9882ZM55.5921 57.1982L49.155 52.4495C48.9358 52.2881 48.6594 52.2175 48.3864 52.2533C48.1135 52.289 47.8664 52.4282 47.6995 52.6402C47.5327 52.8521 47.4597 53.1195 47.4966 53.3836C47.5336 53.6476 47.6775 53.8866 47.8966 54.048L54.3337 58.7967C54.5528 58.9581 54.8293 59.0287 55.1022 58.993C55.2374 58.9753 55.3676 58.932 55.4854 58.8656C55.6033 58.7992 55.7065 58.7111 55.7891 58.6061C55.8717 58.5011 55.9322 58.3815 55.967 58.2539C56.0018 58.1264 56.0103 57.9934 55.992 57.8627C55.9737 57.7319 55.929 57.606 55.8604 57.492C55.7917 57.378 55.7006 57.2781 55.5921 57.1982V57.1982ZM18.0274 52.3693L11.77 57.332C11.6429 57.4071 11.534 57.5078 11.4507 57.6273C11.3674 57.7468 11.3117 57.8823 11.2874 58.0245C11.2631 58.1667 11.2707 58.3123 11.3098 58.4513C11.3489 58.5904 11.4185 58.7197 11.5139 58.8304C11.6093 58.9411 11.7282 59.0307 11.8625 59.0929C11.9969 59.1552 12.1436 59.1887 12.2925 59.1912C12.4415 59.1938 12.5893 59.1652 12.7258 59.1075C12.8623 59.0498 12.9844 58.9643 13.0837 58.8569L19.348 53.9009C19.4578 53.8189 19.5495 53.7165 19.6177 53.5996C19.6859 53.4827 19.7291 53.3538 19.7449 53.2204C19.7606 53.0871 19.7485 52.9521 19.7094 52.8233C19.6702 52.6946 19.6047 52.5748 19.5168 52.4709C19.4289 52.3671 19.3204 52.2814 19.1976 52.2189C19.0749 52.1563 18.9404 52.1183 18.8021 52.1069C18.6639 52.0956 18.5247 52.1112 18.3928 52.1528C18.2609 52.1944 18.139 52.2612 18.0343 52.3492L18.0274 52.3693ZM33.0519 56.9909C32.7768 56.9909 32.513 57.0966 32.3185 57.2847C32.124 57.4729 32.0147 57.728 32.0147 57.9941V64.9968C32.0147 65.2628 32.124 65.518 32.3185 65.7062C32.513 65.8943 32.7768 66 33.0519 66C33.3269 66 33.5907 65.8943 33.7852 65.7062C33.9797 65.518 34.089 65.2628 34.089 64.9968V57.9941C34.089 57.728 33.9797 57.4729 33.7852 57.2847C33.5907 57.0966 33.3269 56.9909 33.0519 56.9909V56.9909Z" fill="white"/>
</svg>
